<?xml version="1.0" encoding="utf-8"?><svg width="auto" height="4770" style="overflow:visible " version="1.1" xmlns="http://www.w3.org/2000/svg"><rect x="20" y="20" width="200" height="40" style="fill:white;stroke:black;stroke-width:1" /><text x="30" y="30" font-size="10" style="fill:blue">xs:schema</text><text x="30" y="40" font-size="8" style="fill:black">xmlns: http://tempuri.org/rutas</text><text x="30" y="50" font-size="8" style="fill:black">elementFormDefault: qualified</text><text x="30" y="60" font-size="8" style="fill:black">targetNamespace: http://tempuri.org/rutas</text><text x="30" y="70" font-size="8" style="fill:black">xmlns:xs: http://www.w3.org/2001/XMLSchema</text><rect x="240" y="20" width="200" height="40" style="fill:white;stroke:black;stroke-width:1" /><text x="250" y="30" font-size="10" style="fill:blue">xs:element</text><path d="M220 40 C240 40 220 40 240 40" style="fill:transparent;stroke:black" /><text x="250" y="40" font-size="8" style="fill:black">name: rutas-turisticas</text><rect x="460" y="20" width="200" height="40" style="fill:white;stroke:black;stroke-width:1" /><text x="470" y="30" font-size="10" style="fill:blue">xs:complexType</text><path d="M440 40 C460 40 440 40 460 40" style="fill:transparent;stroke:black" /><rect x="680" y="20" width="200" height="40" style="fill:white;stroke:black;stroke-width:1" /><text x="690" y="30" font-size="10" style="fill:blue">xs:sequence</text><path d="M660 40 C680 40 660 40 680 40" style="fill:transparent;stroke:black" /><rect x="900" y="20" width="200" height="40" style="fill:white;stroke:black;stroke-width:1" /><text x="910" y="30" font-size="10" style="fill:blue">xs:element</text><path d="M880 40 C900 40 880 40 900 40" style="fill:transparent;stroke:black" /><text x="910" y="40" font-size="8" style="fill:black">minOccurs: 0</text><text x="910" y="50" font-size="8" style="fill:black">maxOccurs: unbounded</text><text x="910" y="60" font-size="8" style="fill:black">ref: ruta</text><rect x="240" y="220" width="200" height="40" style="fill:white;stroke:black;stroke-width:1" /><text x="250" y="230" font-size="10" style="fill:blue">xs:element</text><path d="M220 40 C240 40 220 240 240 240" style="fill:transparent;stroke:black" /><text x="250" y="240" font-size="8" style="fill:black">name: ruta</text><rect x="460" y="220" width="200" height="40" style="fill:white;stroke:black;stroke-width:1" /><text x="470" y="230" font-size="10" style="fill:blue">xs:complexType</text><path d="M440 240 C460 240 440 240 460 240" style="fill:transparent;stroke:black" /><rect x="680" y="220" width="200" height="40" style="fill:white;stroke:black;stroke-width:1" /><text x="690" y="230" font-size="10" style="fill:blue">xs:sequence</text><path d="M660 240 C680 240 660 240 680 240" style="fill:transparent;stroke:black" /><rect x="900" y="220" width="200" height="40" style="fill:white;stroke:black;stroke-width:1" /><text x="910" y="230" font-size="10" style="fill:blue">xs:element</text><path d="M880 240 C900 240 880 240 900 240" style="fill:transparent;stroke:black" /><text x="910" y="240" font-size="8" style="fill:black">ref: nombre</text><rect x="900" y="270" width="200" height="40" style="fill:white;stroke:black;stroke-width:1" /><text x="910" y="280" font-size="10" style="fill:blue">xs:element</text><path d="M880 240 C900 240 880 290 900 290" style="fill:transparent;stroke:black" /><text x="910" y="290" font-size="8" style="fill:black">ref: tipo</text><rect x="900" y="320" width="200" height="40" style="fill:white;stroke:black;stroke-width:1" /><text x="910" y="330" font-size="10" style="fill:blue">xs:element</text><path d="M880 240 C900 240 880 340 900 340" style="fill:transparent;stroke:black" /><text x="910" y="340" font-size="8" style="fill:black">ref: transporte</text><rect x="900" y="370" width="200" height="40" style="fill:white;stroke:black;stroke-width:1" /><text x="910" y="380" font-size="10" style="fill:blue">xs:element</text><path d="M880 240 C900 240 880 390 900 390" style="fill:transparent;stroke:black" /><text x="910" y="390" font-size="8" style="fill:black">minOccurs: 0</text><text x="910" y="400" font-size="8" style="fill:black">maxOccurs: 1</text><text x="910" y="410" font-size="8" style="fill:black">ref: fecha_inicio</text><rect x="900" y="420" width="200" height="40" style="fill:white;stroke:black;stroke-width:1" /><text x="910" y="430" font-size="10" style="fill:blue">xs:element</text><path d="M880 240 C900 240 880 440 900 440" style="fill:transparent;stroke:black" /><text x="910" y="440" font-size="8" style="fill:black">minOccurs: 0</text><text x="910" y="450" font-size="8" style="fill:black">maxOccurs: 1</text><text x="910" y="460" font-size="8" style="fill:black">ref: hora_inicio</text><rect x="900" y="470" width="200" height="40" style="fill:white;stroke:black;stroke-width:1" /><text x="910" y="480" font-size="10" style="fill:blue">xs:element</text><path d="M880 240 C900 240 880 490 900 490" style="fill:transparent;stroke:black" /><text x="910" y="490" font-size="8" style="fill:black">ref: duracion</text><rect x="900" y="520" width="200" height="40" style="fill:white;stroke:black;stroke-width:1" /><text x="910" y="530" font-size="10" style="fill:blue">xs:element</text><path d="M880 240 C900 240 880 540 900 540" style="fill:transparent;stroke:black" /><text x="910" y="540" font-size="8" style="fill:black">ref: agencia</text><rect x="900" y="570" width="200" height="40" style="fill:white;stroke:black;stroke-width:1" /><text x="910" y="580" font-size="10" style="fill:blue">xs:element</text><path d="M880 240 C900 240 880 590 900 590" style="fill:transparent;stroke:black" /><text x="910" y="590" font-size="8" style="fill:black">ref: descripcion</text><rect x="900" y="620" width="200" height="40" style="fill:white;stroke:black;stroke-width:1" /><text x="910" y="630" font-size="10" style="fill:blue">xs:element</text><path d="M880 240 C900 240 880 640 900 640" style="fill:transparent;stroke:black" /><text x="910" y="640" font-size="8" style="fill:black">ref: personasAdecuadas</text><rect x="900" y="670" width="200" height="40" style="fill:white;stroke:black;stroke-width:1" /><text x="910" y="680" font-size="10" style="fill:blue">xs:element</text><path d="M880 240 C900 240 880 690 900 690" style="fill:transparent;stroke:black" /><text x="910" y="690" font-size="8" style="fill:black">ref: lugar_inicio</text><rect x="900" y="720" width="200" height="40" style="fill:white;stroke:black;stroke-width:1" /><text x="910" y="730" font-size="10" style="fill:blue">xs:element</text><path d="M880 240 C900 240 880 740 900 740" style="fill:transparent;stroke:black" /><text x="910" y="740" font-size="8" style="fill:black">ref: direccion_inicio</text><rect x="900" y="770" width="200" height="40" style="fill:white;stroke:black;stroke-width:1" /><text x="910" y="780" font-size="10" style="fill:blue">xs:element</text><path d="M880 240 C900 240 880 790 900 790" style="fill:transparent;stroke:black" /><text x="910" y="790" font-size="8" style="fill:black">ref: coordenada_inicio</text><rect x="900" y="820" width="200" height="40" style="fill:white;stroke:black;stroke-width:1" /><text x="910" y="830" font-size="10" style="fill:blue">xs:element</text><path d="M880 240 C900 240 880 840 900 840" style="fill:transparent;stroke:black" /><text x="910" y="840" font-size="8" style="fill:black">ref: referencias</text><rect x="900" y="870" width="200" height="40" style="fill:white;stroke:black;stroke-width:1" /><text x="910" y="880" font-size="10" style="fill:blue">xs:element</text><path d="M880 240 C900 240 880 890 900 890" style="fill:transparent;stroke:black" /><text x="910" y="890" font-size="8" style="fill:black">ref: bibliografia</text><rect x="900" y="920" width="200" height="40" style="fill:white;stroke:black;stroke-width:1" /><text x="910" y="930" font-size="10" style="fill:blue">xs:element</text><path d="M880 240 C900 240 880 940 900 940" style="fill:transparent;stroke:black" /><text x="910" y="940" font-size="8" style="fill:black">ref: recomendacion</text><rect x="900" y="970" width="200" height="40" style="fill:white;stroke:black;stroke-width:1" /><text x="910" y="980" font-size="10" style="fill:blue">xs:element</text><path d="M880 240 C900 240 880 990 900 990" style="fill:transparent;stroke:black" /><text x="910" y="990" font-size="8" style="fill:black">ref: hitos</text><rect x="240" y="1170" width="200" height="40" style="fill:white;stroke:black;stroke-width:1" /><text x="250" y="1180" font-size="10" style="fill:blue">xs:element</text><path d="M220 40 C240 40 220 1190 240 1190" style="fill:transparent;stroke:black" /><text x="250" y="1190" font-size="8" style="fill:black">name: nombre</text><text x="250" y="1200" font-size="8" style="fill:black">type: xs:string</text><rect x="240" y="1220" width="200" height="40" style="fill:white;stroke:black;stroke-width:1" /><text x="250" y="1230" font-size="10" style="fill:blue">xs:element</text><path d="M220 40 C240 40 220 1240 240 1240" style="fill:transparent;stroke:black" /><text x="250" y="1240" font-size="8" style="fill:black">name: tipo</text><text x="250" y="1250" font-size="8" style="fill:black">type: xs:string</text><rect x="240" y="1270" width="200" height="40" style="fill:white;stroke:black;stroke-width:1" /><text x="250" y="1280" font-size="10" style="fill:blue">xs:element</text><path d="M220 40 C240 40 220 1290 240 1290" style="fill:transparent;stroke:black" /><text x="250" y="1290" font-size="8" style="fill:black">name: transporte</text><text x="250" y="1300" font-size="8" style="fill:black">type: xs:string</text><rect x="240" y="1320" width="200" height="40" style="fill:white;stroke:black;stroke-width:1" /><text x="250" y="1330" font-size="10" style="fill:blue">xs:element</text><path d="M220 40 C240 40 220 1340 240 1340" style="fill:transparent;stroke:black" /><text x="250" y="1340" font-size="8" style="fill:black">name: fecha_inicio</text><text x="250" y="1350" font-size="8" style="fill:black">type: xs:date</text><rect x="240" y="1370" width="200" height="40" style="fill:white;stroke:black;stroke-width:1" /><text x="250" y="1380" font-size="10" style="fill:blue">xs:element</text><path d="M220 40 C240 40 220 1390 240 1390" style="fill:transparent;stroke:black" /><text x="250" y="1390" font-size="8" style="fill:black">name: hora_inicio</text><text x="250" y="1400" font-size="8" style="fill:black">type: xs:date</text><rect x="240" y="1420" width="200" height="40" style="fill:white;stroke:black;stroke-width:1" /><text x="250" y="1430" font-size="10" style="fill:blue">xs:element</text><path d="M220 40 C240 40 220 1440 240 1440" style="fill:transparent;stroke:black" /><text x="250" y="1440" font-size="8" style="fill:black">name: duracion</text><text x="250" y="1450" font-size="8" style="fill:black">type: xs:integer</text><rect x="240" y="1470" width="200" height="40" style="fill:white;stroke:black;stroke-width:1" /><text x="250" y="1480" font-size="10" style="fill:blue">xs:element</text><path d="M220 40 C240 40 220 1490 240 1490" style="fill:transparent;stroke:black" /><text x="250" y="1490" font-size="8" style="fill:black">name: agencia</text><text x="250" y="1500" font-size="8" style="fill:black">type: xs:string</text><rect x="240" y="1520" width="200" height="40" style="fill:white;stroke:black;stroke-width:1" /><text x="250" y="1530" font-size="10" style="fill:blue">xs:element</text><path d="M220 40 C240 40 220 1540 240 1540" style="fill:transparent;stroke:black" /><text x="250" y="1540" font-size="8" style="fill:black">name: descripcion</text><text x="250" y="1550" font-size="8" style="fill:black">type: xs:string</text><rect x="240" y="1570" width="200" height="40" style="fill:white;stroke:black;stroke-width:1" /><text x="250" y="1580" font-size="10" style="fill:blue">xs:element</text><path d="M220 40 C240 40 220 1590 240 1590" style="fill:transparent;stroke:black" /><text x="250" y="1590" font-size="8" style="fill:black">name: personasAdecuadas</text><text x="250" y="1600" font-size="8" style="fill:black">type: xs:string</text><rect x="240" y="1620" width="200" height="40" style="fill:white;stroke:black;stroke-width:1" /><text x="250" y="1630" font-size="10" style="fill:blue">xs:element</text><path d="M220 40 C240 40 220 1640 240 1640" style="fill:transparent;stroke:black" /><text x="250" y="1640" font-size="8" style="fill:black">name: lugar_inicio</text><text x="250" y="1650" font-size="8" style="fill:black">type: xs:string</text><rect x="240" y="1670" width="200" height="40" style="fill:white;stroke:black;stroke-width:1" /><text x="250" y="1680" font-size="10" style="fill:blue">xs:element</text><path d="M220 40 C240 40 220 1690 240 1690" style="fill:transparent;stroke:black" /><text x="250" y="1690" font-size="8" style="fill:black">name: direccion_inicio</text><text x="250" y="1700" font-size="8" style="fill:black">type: xs:string</text><rect x="240" y="1720" width="200" height="40" style="fill:white;stroke:black;stroke-width:1" /><text x="250" y="1730" font-size="10" style="fill:blue">xs:element</text><path d="M220 40 C240 40 220 1740 240 1740" style="fill:transparent;stroke:black" /><text x="250" y="1740" font-size="8" style="fill:black">name: coordenada_inicio</text><rect x="460" y="1720" width="200" height="40" style="fill:white;stroke:black;stroke-width:1" /><text x="470" y="1730" font-size="10" style="fill:blue">xs:complexType</text><path d="M440 1740 C460 1740 440 1740 460 1740" style="fill:transparent;stroke:black" /><rect x="680" y="1720" width="200" height="40" style="fill:white;stroke:black;stroke-width:1" /><text x="690" y="1730" font-size="10" style="fill:blue">xs:sequence</text><path d="M660 1740 C680 1740 660 1740 680 1740" style="fill:transparent;stroke:black" /><rect x="900" y="1720" width="200" height="40" style="fill:white;stroke:black;stroke-width:1" /><text x="910" y="1730" font-size="10" style="fill:blue">xs:element</text><path d="M880 1740 C900 1740 880 1740 900 1740" style="fill:transparent;stroke:black" /><text x="910" y="1740" font-size="8" style="fill:black">ref: longitud</text><rect x="900" y="1770" width="200" height="40" style="fill:white;stroke:black;stroke-width:1" /><text x="910" y="1780" font-size="10" style="fill:blue">xs:element</text><path d="M880 1740 C900 1740 880 1790 900 1790" style="fill:transparent;stroke:black" /><text x="910" y="1790" font-size="8" style="fill:black">ref: latitud</text><rect x="900" y="1820" width="200" height="40" style="fill:white;stroke:black;stroke-width:1" /><text x="910" y="1830" font-size="10" style="fill:blue">xs:element</text><path d="M880 1740 C900 1740 880 1840 900 1840" style="fill:transparent;stroke:black" /><text x="910" y="1840" font-size="8" style="fill:black">ref: altitud</text><rect x="240" y="2020" width="200" height="40" style="fill:white;stroke:black;stroke-width:1" /><text x="250" y="2030" font-size="10" style="fill:blue">xs:element</text><path d="M220 40 C240 40 220 2040 240 2040" style="fill:transparent;stroke:black" /><text x="250" y="2040" font-size="8" style="fill:black">name: longitud</text><text x="250" y="2050" font-size="8" style="fill:black">type: xs:decimal</text><rect x="240" y="2070" width="200" height="40" style="fill:white;stroke:black;stroke-width:1" /><text x="250" y="2080" font-size="10" style="fill:blue">xs:element</text><path d="M220 40 C240 40 220 2090 240 2090" style="fill:transparent;stroke:black" /><text x="250" y="2090" font-size="8" style="fill:black">name: latitud</text><text x="250" y="2100" font-size="8" style="fill:black">type: xs:decimal</text><rect x="240" y="2120" width="200" height="40" style="fill:white;stroke:black;stroke-width:1" /><text x="250" y="2130" font-size="10" style="fill:blue">xs:element</text><path d="M220 40 C240 40 220 2140 240 2140" style="fill:transparent;stroke:black" /><text x="250" y="2140" font-size="8" style="fill:black">name: altitud</text><text x="250" y="2150" font-size="8" style="fill:black">type: xs:deciaml</text><rect x="240" y="2170" width="200" height="40" style="fill:white;stroke:black;stroke-width:1" /><text x="250" y="2180" font-size="10" style="fill:blue">xs:element</text><path d="M220 40 C240 40 220 2190 240 2190" style="fill:transparent;stroke:black" /><text x="250" y="2190" font-size="8" style="fill:black">name: referencias</text><rect x="460" y="2170" width="200" height="40" style="fill:white;stroke:black;stroke-width:1" /><text x="470" y="2180" font-size="10" style="fill:blue">xs:complexType</text><path d="M440 2190 C460 2190 440 2190 460 2190" style="fill:transparent;stroke:black" /><rect x="680" y="2170" width="200" height="40" style="fill:white;stroke:black;stroke-width:1" /><text x="690" y="2180" font-size="10" style="fill:blue">xs:sequence</text><path d="M660 2190 C680 2190 660 2190 680 2190" style="fill:transparent;stroke:black" /><rect x="900" y="2170" width="200" height="40" style="fill:white;stroke:black;stroke-width:1" /><text x="910" y="2180" font-size="10" style="fill:blue">xs:element</text><path d="M880 2190 C900 2190 880 2190 900 2190" style="fill:transparent;stroke:black" /><text x="910" y="2190" font-size="8" style="fill:black">minOccurs: 0</text><text x="910" y="2200" font-size="8" style="fill:black">maxOccurs: unbounded</text><text x="910" y="2210" font-size="8" style="fill:black">ref: referencia</text><rect x="240" y="2370" width="200" height="40" style="fill:white;stroke:black;stroke-width:1" /><text x="250" y="2380" font-size="10" style="fill:blue">xs:element</text><path d="M220 40 C240 40 220 2390 240 2390" style="fill:transparent;stroke:black" /><text x="250" y="2390" font-size="8" style="fill:black">name: bibliografia</text><text x="250" y="2400" font-size="8" style="fill:black">type: xs:string</text><rect x="240" y="2420" width="200" height="40" style="fill:white;stroke:black;stroke-width:1" /><text x="250" y="2430" font-size="10" style="fill:blue">xs:element</text><path d="M220 40 C240 40 220 2440 240 2440" style="fill:transparent;stroke:black" /><text x="250" y="2440" font-size="8" style="fill:black">name: recomendacion</text><text x="250" y="2450" font-size="8" style="fill:black">type: xs:string</text><rect x="240" y="2470" width="200" height="40" style="fill:white;stroke:black;stroke-width:1" /><text x="250" y="2480" font-size="10" style="fill:blue">xs:element</text><path d="M220 40 C240 40 220 2490 240 2490" style="fill:transparent;stroke:black" /><text x="250" y="2490" font-size="8" style="fill:black">name: hitos</text><rect x="460" y="2470" width="200" height="40" style="fill:white;stroke:black;stroke-width:1" /><text x="470" y="2480" font-size="10" style="fill:blue">xs:complexType</text><path d="M440 2490 C460 2490 440 2490 460 2490" style="fill:transparent;stroke:black" /><rect x="680" y="2470" width="200" height="40" style="fill:white;stroke:black;stroke-width:1" /><text x="690" y="2480" font-size="10" style="fill:blue">xs:sequence</text><path d="M660 2490 C680 2490 660 2490 680 2490" style="fill:transparent;stroke:black" /><rect x="900" y="2470" width="200" height="40" style="fill:white;stroke:black;stroke-width:1" /><text x="910" y="2480" font-size="10" style="fill:blue">xs:element</text><path d="M880 2490 C900 2490 880 2490 900 2490" style="fill:transparent;stroke:black" /><text x="910" y="2490" font-size="8" style="fill:black">minOccurs: 0</text><text x="910" y="2500" font-size="8" style="fill:black">maxOccurs: unbounded</text><text x="910" y="2510" font-size="8" style="fill:black">ref: hito</text><rect x="240" y="2670" width="200" height="40" style="fill:white;stroke:black;stroke-width:1" /><text x="250" y="2680" font-size="10" style="fill:blue">xs:element</text><path d="M220 40 C240 40 220 2690 240 2690" style="fill:transparent;stroke:black" /><text x="250" y="2690" font-size="8" style="fill:black">name: referencia</text><rect x="460" y="2670" width="200" height="40" style="fill:white;stroke:black;stroke-width:1" /><text x="470" y="2680" font-size="10" style="fill:blue">xs:complexType</text><path d="M440 2690 C460 2690 440 2690 460 2690" style="fill:transparent;stroke:black" /><rect x="680" y="2670" width="200" height="40" style="fill:white;stroke:black;stroke-width:1" /><text x="690" y="2680" font-size="10" style="fill:blue">xs:simpleContent</text><path d="M660 2690 C680 2690 660 2690 680 2690" style="fill:transparent;stroke:black" /><rect x="900" y="2670" width="200" height="40" style="fill:white;stroke:black;stroke-width:1" /><text x="910" y="2680" font-size="10" style="fill:blue">xs:extension</text><path d="M880 2690 C900 2690 880 2690 900 2690" style="fill:transparent;stroke:black" /><text x="910" y="2690" font-size="8" style="fill:black">base: xs:string</text><rect x="1120" y="2670" width="200" height="40" style="fill:white;stroke:black;stroke-width:1" /><text x="1130" y="2680" font-size="10" style="fill:blue">xs:attribute</text><path d="M1100 2690 C1120 2690 1100 2690 1120 2690" style="fill:transparent;stroke:black" /><text x="1130" y="2690" font-size="8" style="fill:black">name: src</text><text x="1130" y="2700" font-size="8" style="fill:black">type: xs:string</text><text x="1130" y="2710" font-size="8" style="fill:black">use: required</text><rect x="240" y="2920" width="200" height="40" style="fill:white;stroke:black;stroke-width:1" /><text x="250" y="2930" font-size="10" style="fill:blue">xs:element</text><path d="M220 40 C240 40 220 2940 240 2940" style="fill:transparent;stroke:black" /><text x="250" y="2940" font-size="8" style="fill:black">name: hito</text><rect x="460" y="2920" width="200" height="40" style="fill:white;stroke:black;stroke-width:1" /><text x="470" y="2930" font-size="10" style="fill:blue">xs:complexType</text><path d="M440 2940 C460 2940 440 2940 460 2940" style="fill:transparent;stroke:black" /><rect x="680" y="2920" width="200" height="40" style="fill:white;stroke:black;stroke-width:1" /><text x="690" y="2930" font-size="10" style="fill:blue">xs:sequence</text><path d="M660 2940 C680 2940 660 2940 680 2940" style="fill:transparent;stroke:black" /><rect x="900" y="2920" width="200" height="40" style="fill:white;stroke:black;stroke-width:1" /><text x="910" y="2930" font-size="10" style="fill:blue">xs:element</text><path d="M880 2940 C900 2940 880 2940 900 2940" style="fill:transparent;stroke:black" /><text x="910" y="2940" font-size="8" style="fill:black">ref: nombreHito</text><rect x="900" y="2970" width="200" height="40" style="fill:white;stroke:black;stroke-width:1" /><text x="910" y="2980" font-size="10" style="fill:blue">xs:element</text><path d="M880 2940 C900 2940 880 2990 900 2990" style="fill:transparent;stroke:black" /><text x="910" y="2990" font-size="8" style="fill:black">ref: descripcionHito</text><rect x="900" y="3020" width="200" height="40" style="fill:white;stroke:black;stroke-width:1" /><text x="910" y="3030" font-size="10" style="fill:blue">xs:element</text><path d="M880 2940 C900 2940 880 3040 900 3040" style="fill:transparent;stroke:black" /><text x="910" y="3040" font-size="8" style="fill:black">ref: coordenadaHito</text><rect x="900" y="3070" width="200" height="40" style="fill:white;stroke:black;stroke-width:1" /><text x="910" y="3080" font-size="10" style="fill:blue">xs:element</text><path d="M880 2940 C900 2940 880 3090 900 3090" style="fill:transparent;stroke:black" /><text x="910" y="3090" font-size="8" style="fill:black">ref: distanciaHito</text><rect x="900" y="3120" width="200" height="40" style="fill:white;stroke:black;stroke-width:1" /><text x="910" y="3130" font-size="10" style="fill:blue">xs:element</text><path d="M880 2940 C900 2940 880 3140 900 3140" style="fill:transparent;stroke:black" /><text x="910" y="3140" font-size="8" style="fill:black">ref: fotografiasHito</text><rect x="900" y="3170" width="200" height="40" style="fill:white;stroke:black;stroke-width:1" /><text x="910" y="3180" font-size="10" style="fill:blue">xs:element</text><path d="M880 2940 C900 2940 880 3190 900 3190" style="fill:transparent;stroke:black" /><text x="910" y="3190" font-size="8" style="fill:black">ref: videosHito</text><rect x="240" y="3370" width="200" height="40" style="fill:white;stroke:black;stroke-width:1" /><text x="250" y="3380" font-size="10" style="fill:blue">xs:element</text><path d="M220 40 C240 40 220 3390 240 3390" style="fill:transparent;stroke:black" /><text x="250" y="3390" font-size="8" style="fill:black">name: nombreHito</text><text x="250" y="3400" font-size="8" style="fill:black">type: xs:string</text><rect x="240" y="3420" width="200" height="40" style="fill:white;stroke:black;stroke-width:1" /><text x="250" y="3430" font-size="10" style="fill:blue">xs:element</text><path d="M220 40 C240 40 220 3440 240 3440" style="fill:transparent;stroke:black" /><text x="250" y="3440" font-size="8" style="fill:black">name: descripcionHito</text><text x="250" y="3450" font-size="8" style="fill:black">type: xs:string</text><rect x="240" y="3470" width="200" height="40" style="fill:white;stroke:black;stroke-width:1" /><text x="250" y="3480" font-size="10" style="fill:blue">xs:element</text><path d="M220 40 C240 40 220 3490 240 3490" style="fill:transparent;stroke:black" /><text x="250" y="3490" font-size="8" style="fill:black">name: coordenadaHito</text><rect x="460" y="3470" width="200" height="40" style="fill:white;stroke:black;stroke-width:1" /><text x="470" y="3480" font-size="10" style="fill:blue">xs:complexType</text><path d="M440 3490 C460 3490 440 3490 460 3490" style="fill:transparent;stroke:black" /><rect x="680" y="3470" width="200" height="40" style="fill:white;stroke:black;stroke-width:1" /><text x="690" y="3480" font-size="10" style="fill:blue">xs:sequence</text><path d="M660 3490 C680 3490 660 3490 680 3490" style="fill:transparent;stroke:black" /><rect x="900" y="3470" width="200" height="40" style="fill:white;stroke:black;stroke-width:1" /><text x="910" y="3480" font-size="10" style="fill:blue">xs:element</text><path d="M880 3490 C900 3490 880 3490 900 3490" style="fill:transparent;stroke:black" /><text x="910" y="3490" font-size="8" style="fill:black">ref: longitud</text><rect x="900" y="3520" width="200" height="40" style="fill:white;stroke:black;stroke-width:1" /><text x="910" y="3530" font-size="10" style="fill:blue">xs:element</text><path d="M880 3490 C900 3490 880 3540 900 3540" style="fill:transparent;stroke:black" /><text x="910" y="3540" font-size="8" style="fill:black">ref: latitud</text><rect x="900" y="3570" width="200" height="40" style="fill:white;stroke:black;stroke-width:1" /><text x="910" y="3580" font-size="10" style="fill:blue">xs:element</text><path d="M880 3490 C900 3490 880 3590 900 3590" style="fill:transparent;stroke:black" /><text x="910" y="3590" font-size="8" style="fill:black">ref: altitud</text><rect x="240" y="3770" width="200" height="40" style="fill:white;stroke:black;stroke-width:1" /><text x="250" y="3780" font-size="10" style="fill:blue">xs:element</text><path d="M220 40 C240 40 220 3790 240 3790" style="fill:transparent;stroke:black" /><text x="250" y="3790" font-size="8" style="fill:black">name: distanciaHito</text><text x="250" y="3800" font-size="8" style="fill:black">type: xs:string</text><rect x="240" y="3820" width="200" height="40" style="fill:white;stroke:black;stroke-width:1" /><text x="250" y="3830" font-size="10" style="fill:blue">xs:element</text><path d="M220 40 C240 40 220 3840 240 3840" style="fill:transparent;stroke:black" /><text x="250" y="3840" font-size="8" style="fill:black">name: fotografiasHito</text><rect x="460" y="3820" width="200" height="40" style="fill:white;stroke:black;stroke-width:1" /><text x="470" y="3830" font-size="10" style="fill:blue">xs:complexType</text><path d="M440 3840 C460 3840 440 3840 460 3840" style="fill:transparent;stroke:black" /><rect x="680" y="3820" width="200" height="40" style="fill:white;stroke:black;stroke-width:1" /><text x="690" y="3830" font-size="10" style="fill:blue">xs:sequence</text><path d="M660 3840 C680 3840 660 3840 680 3840" style="fill:transparent;stroke:black" /><rect x="900" y="3820" width="200" height="40" style="fill:white;stroke:black;stroke-width:1" /><text x="910" y="3830" font-size="10" style="fill:blue">xs:element</text><path d="M880 3840 C900 3840 880 3840 900 3840" style="fill:transparent;stroke:black" /><text x="910" y="3840" font-size="8" style="fill:black">minOccurs: 0</text><text x="910" y="3850" font-size="8" style="fill:black">maxOccurs: unbounded</text><text x="910" y="3860" font-size="8" style="fill:black">ref: fotografiaHito</text><rect x="240" y="4020" width="200" height="40" style="fill:white;stroke:black;stroke-width:1" /><text x="250" y="4030" font-size="10" style="fill:blue">xs:element</text><path d="M220 40 C240 40 220 4040 240 4040" style="fill:transparent;stroke:black" /><text x="250" y="4040" font-size="8" style="fill:black">name: fotografiaHito</text><rect x="460" y="4020" width="200" height="40" style="fill:white;stroke:black;stroke-width:1" /><text x="470" y="4030" font-size="10" style="fill:blue">xs:complexType</text><path d="M440 4040 C460 4040 440 4040 460 4040" style="fill:transparent;stroke:black" /><rect x="680" y="4020" width="200" height="40" style="fill:white;stroke:black;stroke-width:1" /><text x="690" y="4030" font-size="10" style="fill:blue">xs:simpleContent</text><path d="M660 4040 C680 4040 660 4040 680 4040" style="fill:transparent;stroke:black" /><rect x="900" y="4020" width="200" height="40" style="fill:white;stroke:black;stroke-width:1" /><text x="910" y="4030" font-size="10" style="fill:blue">xs:extension</text><path d="M880 4040 C900 4040 880 4040 900 4040" style="fill:transparent;stroke:black" /><text x="910" y="4040" font-size="8" style="fill:black">base: xs:string</text><rect x="1120" y="4020" width="200" height="40" style="fill:white;stroke:black;stroke-width:1" /><text x="1130" y="4030" font-size="10" style="fill:blue">xs:attribute</text><path d="M1100 4040 C1120 4040 1100 4040 1120 4040" style="fill:transparent;stroke:black" /><text x="1130" y="4040" font-size="8" style="fill:black">name: src</text><text x="1130" y="4050" font-size="8" style="fill:black">type: xs:string</text><text x="1130" y="4060" font-size="8" style="fill:black">use: required</text><rect x="240" y="4270" width="200" height="40" style="fill:white;stroke:black;stroke-width:1" /><text x="250" y="4280" font-size="10" style="fill:blue">xs:element</text><path d="M220 40 C240 40 220 4290 240 4290" style="fill:transparent;stroke:black" /><text x="250" y="4290" font-size="8" style="fill:black">name: videosHito</text><rect x="460" y="4270" width="200" height="40" style="fill:white;stroke:black;stroke-width:1" /><text x="470" y="4280" font-size="10" style="fill:blue">xs:complexType</text><path d="M440 4290 C460 4290 440 4290 460 4290" style="fill:transparent;stroke:black" /><rect x="680" y="4270" width="200" height="40" style="fill:white;stroke:black;stroke-width:1" /><text x="690" y="4280" font-size="10" style="fill:blue">xs:sequence</text><path d="M660 4290 C680 4290 660 4290 680 4290" style="fill:transparent;stroke:black" /><rect x="900" y="4270" width="200" height="40" style="fill:white;stroke:black;stroke-width:1" /><text x="910" y="4280" font-size="10" style="fill:blue">xs:element</text><path d="M880 4290 C900 4290 880 4290 900 4290" style="fill:transparent;stroke:black" /><text x="910" y="4290" font-size="8" style="fill:black">minOccurs: 0</text><text x="910" y="4300" font-size="8" style="fill:black">maxOccurs: unbounded</text><text x="910" y="4310" font-size="8" style="fill:black">ref: videoHito</text><rect x="240" y="4470" width="200" height="40" style="fill:white;stroke:black;stroke-width:1" /><text x="250" y="4480" font-size="10" style="fill:blue">xs:element</text><path d="M220 40 C240 40 220 4490 240 4490" style="fill:transparent;stroke:black" /><text x="250" y="4490" font-size="8" style="fill:black">name: videoHito</text><rect x="460" y="4470" width="200" height="40" style="fill:white;stroke:black;stroke-width:1" /><text x="470" y="4480" font-size="10" style="fill:blue">xs:complexType</text><path d="M440 4490 C460 4490 440 4490 460 4490" style="fill:transparent;stroke:black" /><rect x="680" y="4470" width="200" height="40" style="fill:white;stroke:black;stroke-width:1" /><text x="690" y="4480" font-size="10" style="fill:blue">xs:simpleContent</text><path d="M660 4490 C680 4490 660 4490 680 4490" style="fill:transparent;stroke:black" /><rect x="900" y="4470" width="200" height="40" style="fill:white;stroke:black;stroke-width:1" /><text x="910" y="4480" font-size="10" style="fill:blue">xs:extension</text><path d="M880 4490 C900 4490 880 4490 900 4490" style="fill:transparent;stroke:black" /><text x="910" y="4490" font-size="8" style="fill:black">base: xs:string</text><rect x="1120" y="4470" width="200" height="40" style="fill:white;stroke:black;stroke-width:1" /><text x="1130" y="4480" font-size="10" style="fill:blue">xs:attribute</text><path d="M1100 4490 C1120 4490 1100 4490 1120 4490" style="fill:transparent;stroke:black" /><text x="1130" y="4490" font-size="8" style="fill:black">name: src</text><text x="1130" y="4500" font-size="8" style="fill:black">type: xs:string</text><text x="1130" y="4510" font-size="8" style="fill:black">use: required</text></svg>