<?xml version="1.0" encoding="utf-8"?><svg width="auto" height="4820" style="overflow:visible " version="1.1" xmlns="http://www.w3.org/2000/svg"><rect x="20" y="20" width="200" height="40" style="fill:white;stroke:black;stroke-width:1" /><text x="30" y="30" font-size="10" style="fill:blue">rutas-turisticas</text><rect x="240" y="20" width="200" height="40" style="fill:white;stroke:black;stroke-width:1" /><text x="250" y="30" font-size="10" style="fill:blue">ruta</text><path d="M220 40 C240 40 220 40 240 40" style="fill:transparent;stroke:black" /><rect x="460" y="20" width="200" height="40" style="fill:white;stroke:black;stroke-width:1" /><text x="470" y="30" font-size="10" style="fill:blue">nombre</text><path d="M440 40 C460 40 440 40 460 40" style="fill:transparent;stroke:black" /><rect x="526" y="20" width="137" height="40" style="fill:green;stroke:black;stroke-width:1" /><text x="536" y="30" font-size="8" style="fill:white">Ruta por Seúl</text><rect x="460" y="70" width="200" height="40" style="fill:white;stroke:black;stroke-width:1" /><text x="470" y="80" font-size="10" style="fill:blue">tipo</text><path d="M440 40 C460 40 440 90 460 90" style="fill:transparent;stroke:black" /><rect x="526" y="70" width="137" height="40" style="fill:green;stroke:black;stroke-width:1" /><text x="536" y="80" font-size="8" style="fill:white">Ciudad</text><rect x="460" y="120" width="200" height="40" style="fill:white;stroke:black;stroke-width:1" /><text x="470" y="130" font-size="10" style="fill:blue">transporte</text><path d="M440 40 C460 40 440 140 460 140" style="fill:transparent;stroke:black" /><rect x="526" y="120" width="137" height="40" style="fill:green;stroke:black;stroke-width:1" /><text x="536" y="130" font-size="8" style="fill:white">Metro y a pie</text><rect x="460" y="170" width="200" height="40" style="fill:white;stroke:black;stroke-width:1" /><text x="470" y="180" font-size="10" style="fill:blue">duracion</text><path d="M440 40 C460 40 440 190 460 190" style="fill:transparent;stroke:black" /><rect x="526" y="170" width="137" height="40" style="fill:green;stroke:black;stroke-width:1" /><text x="536" y="180" font-size="8" style="fill:white">2 días</text><rect x="460" y="220" width="200" height="40" style="fill:white;stroke:black;stroke-width:1" /><text x="470" y="230" font-size="10" style="fill:blue">agencia</text><path d="M440 40 C460 40 440 240 460 240" style="fill:transparent;stroke:black" /><rect x="526" y="220" width="137" height="40" style="fill:green;stroke:black;stroke-width:1" /><text x="536" y="230" font-size="8" style="fill:white">Visit Korea</text><rect x="460" y="270" width="200" height="40" style="fill:white;stroke:black;stroke-width:1" /><text x="470" y="280" font-size="10" style="fill:blue">descripcion</text><path d="M440 40 C460 40 440 290 460 290" style="fill:transparent;stroke:black" /><rect x="526" y="270" width="137" height="40" style="fill:green;stroke:black;stroke-width:1" /><text x="536" y="280" font-size="8" style="fill:white">Explora la capital de Corea del Sur, Seúl, y descubre su rica historia y cultura.</text><rect x="460" y="320" width="200" height="40" style="fill:white;stroke:black;stroke-width:1" /><text x="470" y="330" font-size="10" style="fill:blue">personasAdecuadas</text><path d="M440 40 C460 40 440 340 460 340" style="fill:transparent;stroke:black" /><rect x="526" y="320" width="137" height="40" style="fill:green;stroke:black;stroke-width:1" /><text x="536" y="330" font-size="8" style="fill:white">Turistas interesados en la historia y la gastronomía.</text><rect x="460" y="370" width="200" height="40" style="fill:white;stroke:black;stroke-width:1" /><text x="470" y="380" font-size="10" style="fill:blue">lugar_inicio</text><path d="M440 40 C460 40 440 390 460 390" style="fill:transparent;stroke:black" /><rect x="526" y="370" width="137" height="40" style="fill:green;stroke:black;stroke-width:1" /><text x="536" y="380" font-size="8" style="fill:white">Palacio de Gyeongbokgung</text><rect x="460" y="420" width="200" height="40" style="fill:white;stroke:black;stroke-width:1" /><text x="470" y="430" font-size="10" style="fill:blue">direccion_inicio</text><path d="M440 40 C460 40 440 440 460 440" style="fill:transparent;stroke:black" /><rect x="526" y="420" width="137" height="40" style="fill:green;stroke:black;stroke-width:1" /><text x="536" y="430" font-size="8" style="fill:white">161 Sajik-ro, Jongno-gu, Seúl</text><rect x="460" y="470" width="200" height="40" style="fill:white;stroke:black;stroke-width:1" /><text x="470" y="480" font-size="10" style="fill:blue">coordenada_inicio</text><path d="M440 40 C460 40 440 490 460 490" style="fill:transparent;stroke:black" /><rect x="680" y="470" width="200" height="40" style="fill:white;stroke:black;stroke-width:1" /><text x="690" y="480" font-size="10" style="fill:blue">longitud</text><path d="M660 490 C680 490 660 490 680 490" style="fill:transparent;stroke:black" /><rect x="746" y="470" width="137" height="40" style="fill:green;stroke:black;stroke-width:1" /><text x="756" y="480" font-size="8" style="fill:white">126.977966</text><rect x="680" y="520" width="200" height="40" style="fill:white;stroke:black;stroke-width:1" /><text x="690" y="530" font-size="10" style="fill:blue">latitud</text><path d="M660 490 C680 490 660 540 680 540" style="fill:transparent;stroke:black" /><rect x="746" y="520" width="137" height="40" style="fill:green;stroke:black;stroke-width:1" /><text x="756" y="530" font-size="8" style="fill:white">37.577262</text><rect x="680" y="570" width="200" height="40" style="fill:white;stroke:black;stroke-width:1" /><text x="690" y="580" font-size="10" style="fill:blue">altitud</text><path d="M660 490 C680 490 660 590 680 590" style="fill:transparent;stroke:black" /><rect x="746" y="570" width="137" height="40" style="fill:green;stroke:black;stroke-width:1" /><text x="756" y="580" font-size="8" style="fill:white">50 metros</text><rect x="460" y="670" width="200" height="40" style="fill:white;stroke:black;stroke-width:1" /><text x="470" y="680" font-size="10" style="fill:blue">referencias</text><path d="M440 40 C460 40 440 690 460 690" style="fill:transparent;stroke:black" /><rect x="680" y="670" width="200" height="40" style="fill:white;stroke:black;stroke-width:1" /><text x="690" y="680" font-size="10" style="fill:blue">referencia</text><path d="M660 690 C680 690 660 690 680 690" style="fill:transparent;stroke:black" /><text x="690" y="690" font-size="8" style="fill:black">src:  </text><rect x="460" y="770" width="200" height="40" style="fill:white;stroke:black;stroke-width:1" /><text x="470" y="780" font-size="10" style="fill:blue">bibliografia</text><path d="M440 40 C460 40 440 790 460 790" style="fill:transparent;stroke:black" /><rect x="526" y="770" width="137" height="40" style="fill:green;stroke:black;stroke-width:1" /><text x="536" y="780" font-size="8" style="fill:white">Guía turística de Seúl</text><rect x="460" y="820" width="200" height="40" style="fill:white;stroke:black;stroke-width:1" /><text x="470" y="830" font-size="10" style="fill:blue">recomendacion</text><path d="M440 40 C460 40 440 840 460 840" style="fill:transparent;stroke:black" /><rect x="526" y="820" width="137" height="40" style="fill:green;stroke:black;stroke-width:1" /><text x="536" y="830" font-size="8" style="fill:white">Lleva calzado cómodo y un paraguas, ya que el clima puede ser impredecible.</text><rect x="460" y="870" width="200" height="40" style="fill:white;stroke:black;stroke-width:1" /><text x="470" y="880" font-size="10" style="fill:blue">hitos</text><path d="M440 40 C460 40 440 890 460 890" style="fill:transparent;stroke:black" /><rect x="680" y="870" width="200" height="40" style="fill:white;stroke:black;stroke-width:1" /><text x="690" y="880" font-size="10" style="fill:blue">hito</text><path d="M660 890 C680 890 660 890 680 890" style="fill:transparent;stroke:black" /><rect x="900" y="870" width="200" height="40" style="fill:white;stroke:black;stroke-width:1" /><text x="910" y="880" font-size="10" style="fill:blue">nombreHito</text><path d="M880 890 C900 890 880 890 900 890" style="fill:transparent;stroke:black" /><rect x="966" y="870" width="137" height="40" style="fill:green;stroke:black;stroke-width:1" /><text x="976" y="880" font-size="8" style="fill:white">Palacio de Gyeongbokgung</text><rect x="900" y="920" width="200" height="40" style="fill:white;stroke:black;stroke-width:1" /><text x="910" y="930" font-size="10" style="fill:blue">descripcionHito</text><path d="M880 890 C900 890 880 940 900 940" style="fill:transparent;stroke:black" /><rect x="966" y="920" width="137" height="40" style="fill:green;stroke:black;stroke-width:1" /><text x="976" y="930" font-size="8" style="fill:white">Un majestuoso palacio real de la dinastía Joseon.</text><rect x="900" y="970" width="200" height="40" style="fill:white;stroke:black;stroke-width:1" /><text x="910" y="980" font-size="10" style="fill:blue">coordenadaHito</text><path d="M880 890 C900 890 880 990 900 990" style="fill:transparent;stroke:black" /><rect x="1120" y="970" width="200" height="40" style="fill:white;stroke:black;stroke-width:1" /><text x="1130" y="980" font-size="10" style="fill:blue">longitud</text><path d="M1100 990 C1120 990 1100 990 1120 990" style="fill:transparent;stroke:black" /><rect x="1186" y="970" width="137" height="40" style="fill:green;stroke:black;stroke-width:1" /><text x="1196" y="980" font-size="8" style="fill:white">126.977966</text><rect x="1120" y="1020" width="200" height="40" style="fill:white;stroke:black;stroke-width:1" /><text x="1130" y="1030" font-size="10" style="fill:blue">latitud</text><path d="M1100 990 C1120 990 1100 1040 1120 1040" style="fill:transparent;stroke:black" /><rect x="1186" y="1020" width="137" height="40" style="fill:green;stroke:black;stroke-width:1" /><text x="1196" y="1030" font-size="8" style="fill:white">37.577262</text><rect x="1120" y="1070" width="200" height="40" style="fill:white;stroke:black;stroke-width:1" /><text x="1130" y="1080" font-size="10" style="fill:blue">altitud</text><path d="M1100 990 C1120 990 1100 1090 1120 1090" style="fill:transparent;stroke:black" /><rect x="1186" y="1070" width="137" height="40" style="fill:green;stroke:black;stroke-width:1" /><text x="1196" y="1080" font-size="8" style="fill:white">50 metros</text><rect x="900" y="1170" width="200" height="40" style="fill:white;stroke:black;stroke-width:1" /><text x="910" y="1180" font-size="10" style="fill:blue">distanciaHito</text><path d="M880 890 C900 890 880 1190 900 1190" style="fill:transparent;stroke:black" /><rect x="966" y="1170" width="137" height="40" style="fill:green;stroke:black;stroke-width:1" /><text x="976" y="1180" font-size="8" style="fill:white">0 km desde el inicio</text><rect x="900" y="1220" width="200" height="40" style="fill:white;stroke:black;stroke-width:1" /><text x="910" y="1230" font-size="10" style="fill:blue">fotografiasHito</text><path d="M880 890 C900 890 880 1240 900 1240" style="fill:transparent;stroke:black" /><rect x="1120" y="1220" width="200" height="40" style="fill:white;stroke:black;stroke-width:1" /><text x="1130" y="1230" font-size="10" style="fill:blue">fotografiaHito</text><path d="M1100 1240 C1120 1240 1100 1240 1120 1240" style="fill:transparent;stroke:black" /><text x="1130" y="1240" font-size="8" style="fill:black">src: gyeongbokgung.jpg</text><rect x="900" y="1320" width="200" height="40" style="fill:white;stroke:black;stroke-width:1" /><text x="910" y="1330" font-size="10" style="fill:blue">videosHito</text><path d="M880 890 C900 890 880 1340 900 1340" style="fill:transparent;stroke:black" /><rect x="1120" y="1320" width="200" height="40" style="fill:white;stroke:black;stroke-width:1" /><text x="1130" y="1330" font-size="10" style="fill:blue">videoHito</text><path d="M1100 1340 C1120 1340 1100 1340 1120 1340" style="fill:transparent;stroke:black" /><text x="1130" y="1340" font-size="8" style="fill:black">src: gyeongbokgung.mp4</text><rect x="240" y="1570" width="200" height="40" style="fill:white;stroke:black;stroke-width:1" /><text x="250" y="1580" font-size="10" style="fill:blue">ruta</text><path d="M220 40 C240 40 220 1590 240 1590" style="fill:transparent;stroke:black" /><rect x="460" y="1570" width="200" height="40" style="fill:white;stroke:black;stroke-width:1" /><text x="470" y="1580" font-size="10" style="fill:blue">nombre</text><path d="M440 1590 C460 1590 440 1590 460 1590" style="fill:transparent;stroke:black" /><rect x="526" y="1570" width="137" height="40" style="fill:green;stroke:black;stroke-width:1" /><text x="536" y="1580" font-size="8" style="fill:white">Ruta por Busan</text><rect x="460" y="1620" width="200" height="40" style="fill:white;stroke:black;stroke-width:1" /><text x="470" y="1630" font-size="10" style="fill:blue">tipo</text><path d="M440 1590 C460 1590 440 1640 460 1640" style="fill:transparent;stroke:black" /><rect x="526" y="1620" width="137" height="40" style="fill:green;stroke:black;stroke-width:1" /><text x="536" y="1630" font-size="8" style="fill:white">Ciudad y Playa</text><rect x="460" y="1670" width="200" height="40" style="fill:white;stroke:black;stroke-width:1" /><text x="470" y="1680" font-size="10" style="fill:blue">transporte</text><path d="M440 1590 C460 1590 440 1690 460 1690" style="fill:transparent;stroke:black" /><rect x="526" y="1670" width="137" height="40" style="fill:green;stroke:black;stroke-width:1" /><text x="536" y="1680" font-size="8" style="fill:white">Autobús y ferry</text><rect x="460" y="1720" width="200" height="40" style="fill:white;stroke:black;stroke-width:1" /><text x="470" y="1730" font-size="10" style="fill:blue">duracion</text><path d="M440 1590 C460 1590 440 1740 460 1740" style="fill:transparent;stroke:black" /><rect x="526" y="1720" width="137" height="40" style="fill:green;stroke:black;stroke-width:1" /><text x="536" y="1730" font-size="8" style="fill:white">3 días</text><rect x="460" y="1770" width="200" height="40" style="fill:white;stroke:black;stroke-width:1" /><text x="470" y="1780" font-size="10" style="fill:blue">agencia</text><path d="M440 1590 C460 1590 440 1790 460 1790" style="fill:transparent;stroke:black" /><rect x="526" y="1770" width="137" height="40" style="fill:green;stroke:black;stroke-width:1" /><text x="536" y="1780" font-size="8" style="fill:white">Korea Travel Co.</text><rect x="460" y="1820" width="200" height="40" style="fill:white;stroke:black;stroke-width:1" /><text x="470" y="1830" font-size="10" style="fill:blue">descripcion</text><path d="M440 1590 C460 1590 440 1840 460 1840" style="fill:transparent;stroke:black" /><rect x="526" y="1820" width="137" height="40" style="fill:green;stroke:black;stroke-width:1" /><text x="536" y="1830" font-size="8" style="fill:white">Descubre la ciudad costera de Busan y disfruta de sus hermosas playas y mariscos frescos.</text><rect x="460" y="1870" width="200" height="40" style="fill:white;stroke:black;stroke-width:1" /><text x="470" y="1880" font-size="10" style="fill:blue">personasAdecuadas</text><path d="M440 1590 C460 1590 440 1890 460 1890" style="fill:transparent;stroke:black" /><rect x="526" y="1870" width="137" height="40" style="fill:green;stroke:black;stroke-width:1" /><text x="536" y="1880" font-size="8" style="fill:white">Aventureros y amantes de la playa.</text><rect x="460" y="1920" width="200" height="40" style="fill:white;stroke:black;stroke-width:1" /><text x="470" y="1930" font-size="10" style="fill:blue">lugar_inicio</text><path d="M440 1590 C460 1590 440 1940 460 1940" style="fill:transparent;stroke:black" /><rect x="526" y="1920" width="137" height="40" style="fill:green;stroke:black;stroke-width:1" /><text x="536" y="1930" font-size="8" style="fill:white">Estación de autobuses de Busan</text><rect x="460" y="1970" width="200" height="40" style="fill:white;stroke:black;stroke-width:1" /><text x="470" y="1980" font-size="10" style="fill:blue">direccion_inicio</text><path d="M440 1590 C460 1590 440 1990 460 1990" style="fill:transparent;stroke:black" /><rect x="526" y="1970" width="137" height="40" style="fill:green;stroke:black;stroke-width:1" /><text x="536" y="1980" font-size="8" style="fill:white">15-1 Gudeok-ro, Gudeok-myeon, Gimhae, Gyeongsangnam-do</text><rect x="460" y="2020" width="200" height="40" style="fill:white;stroke:black;stroke-width:1" /><text x="470" y="2030" font-size="10" style="fill:blue">coordenada_inicio</text><path d="M440 1590 C460 1590 440 2040 460 2040" style="fill:transparent;stroke:black" /><rect x="680" y="2020" width="200" height="40" style="fill:white;stroke:black;stroke-width:1" /><text x="690" y="2030" font-size="10" style="fill:blue">longitud</text><path d="M660 2040 C680 2040 660 2040 680 2040" style="fill:transparent;stroke:black" /><rect x="746" y="2020" width="137" height="40" style="fill:green;stroke:black;stroke-width:1" /><text x="756" y="2030" font-size="8" style="fill:white">128.938596</text><rect x="680" y="2070" width="200" height="40" style="fill:white;stroke:black;stroke-width:1" /><text x="690" y="2080" font-size="10" style="fill:blue">latitud</text><path d="M660 2040 C680 2040 660 2090 680 2090" style="fill:transparent;stroke:black" /><rect x="746" y="2070" width="137" height="40" style="fill:green;stroke:black;stroke-width:1" /><text x="756" y="2080" font-size="8" style="fill:white">35.166642</text><rect x="680" y="2120" width="200" height="40" style="fill:white;stroke:black;stroke-width:1" /><text x="690" y="2130" font-size="10" style="fill:blue">altitud</text><path d="M660 2040 C680 2040 660 2140 680 2140" style="fill:transparent;stroke:black" /><rect x="746" y="2120" width="137" height="40" style="fill:green;stroke:black;stroke-width:1" /><text x="756" y="2130" font-size="8" style="fill:white">10 metros</text><rect x="460" y="2220" width="200" height="40" style="fill:white;stroke:black;stroke-width:1" /><text x="470" y="2230" font-size="10" style="fill:blue">referencias</text><path d="M440 1590 C460 1590 440 2240 460 2240" style="fill:transparent;stroke:black" /><rect x="680" y="2220" width="200" height="40" style="fill:white;stroke:black;stroke-width:1" /><text x="690" y="2230" font-size="10" style="fill:blue">referencia</text><path d="M660 2240 C680 2240 660 2240 680 2240" style="fill:transparent;stroke:black" /><text x="690" y="2240" font-size="8" style="fill:black">src:  </text><rect x="460" y="2320" width="200" height="40" style="fill:white;stroke:black;stroke-width:1" /><text x="470" y="2330" font-size="10" style="fill:blue">bibliografia</text><path d="M440 1590 C460 1590 440 2340 460 2340" style="fill:transparent;stroke:black" /><rect x="526" y="2320" width="137" height="40" style="fill:green;stroke:black;stroke-width:1" /><text x="536" y="2330" font-size="8" style="fill:white">Guía de viaje de Busan</text><rect x="460" y="2370" width="200" height="40" style="fill:white;stroke:black;stroke-width:1" /><text x="470" y="2380" font-size="10" style="fill:blue">recomendacion</text><path d="M440 1590 C460 1590 440 2390 460 2390" style="fill:transparent;stroke:black" /><rect x="526" y="2370" width="137" height="40" style="fill:green;stroke:black;stroke-width:1" /><text x="536" y="2380" font-size="8" style="fill:white">Lleva protector solar y traje de baño para disfrutar de la playa.</text><rect x="460" y="2420" width="200" height="40" style="fill:white;stroke:black;stroke-width:1" /><text x="470" y="2430" font-size="10" style="fill:blue">hitos</text><path d="M440 1590 C460 1590 440 2440 460 2440" style="fill:transparent;stroke:black" /><rect x="680" y="2420" width="200" height="40" style="fill:white;stroke:black;stroke-width:1" /><text x="690" y="2430" font-size="10" style="fill:blue">hito</text><path d="M660 2440 C680 2440 660 2440 680 2440" style="fill:transparent;stroke:black" /><rect x="900" y="2420" width="200" height="40" style="fill:white;stroke:black;stroke-width:1" /><text x="910" y="2430" font-size="10" style="fill:blue">nombreHito</text><path d="M880 2440 C900 2440 880 2440 900 2440" style="fill:transparent;stroke:black" /><rect x="966" y="2420" width="137" height="40" style="fill:green;stroke:black;stroke-width:1" /><text x="976" y="2430" font-size="8" style="fill:white">Playa de Haeundae</text><rect x="900" y="2470" width="200" height="40" style="fill:white;stroke:black;stroke-width:1" /><text x="910" y="2480" font-size="10" style="fill:blue">descripcionHito</text><path d="M880 2440 C900 2440 880 2490 900 2490" style="fill:transparent;stroke:black" /><rect x="966" y="2470" width="137" height="40" style="fill:green;stroke:black;stroke-width:1" /><text x="976" y="2480" font-size="8" style="fill:white">Una de las playas más famosas de Corea del Sur.</text><rect x="900" y="2520" width="200" height="40" style="fill:white;stroke:black;stroke-width:1" /><text x="910" y="2530" font-size="10" style="fill:blue">coordenadaHito</text><path d="M880 2440 C900 2440 880 2540 900 2540" style="fill:transparent;stroke:black" /><rect x="1120" y="2520" width="200" height="40" style="fill:white;stroke:black;stroke-width:1" /><text x="1130" y="2530" font-size="10" style="fill:blue">longitud</text><path d="M1100 2540 C1120 2540 1100 2540 1120 2540" style="fill:transparent;stroke:black" /><rect x="1186" y="2520" width="137" height="40" style="fill:green;stroke:black;stroke-width:1" /><text x="1196" y="2530" font-size="8" style="fill:white">129.16215</text><rect x="1120" y="2570" width="200" height="40" style="fill:white;stroke:black;stroke-width:1" /><text x="1130" y="2580" font-size="10" style="fill:blue">latitud</text><path d="M1100 2540 C1120 2540 1100 2590 1120 2590" style="fill:transparent;stroke:black" /><rect x="1186" y="2570" width="137" height="40" style="fill:green;stroke:black;stroke-width:1" /><text x="1196" y="2580" font-size="8" style="fill:white">35.15768</text><rect x="1120" y="2620" width="200" height="40" style="fill:white;stroke:black;stroke-width:1" /><text x="1130" y="2630" font-size="10" style="fill:blue">altitud</text><path d="M1100 2540 C1120 2540 1100 2640 1120 2640" style="fill:transparent;stroke:black" /><rect x="1186" y="2620" width="137" height="40" style="fill:green;stroke:black;stroke-width:1" /><text x="1196" y="2630" font-size="8" style="fill:white">1 metros</text><rect x="900" y="2720" width="200" height="40" style="fill:white;stroke:black;stroke-width:1" /><text x="910" y="2730" font-size="10" style="fill:blue">distanciaHito</text><path d="M880 2440 C900 2440 880 2740 900 2740" style="fill:transparent;stroke:black" /><rect x="966" y="2720" width="137" height="40" style="fill:green;stroke:black;stroke-width:1" /><text x="976" y="2730" font-size="8" style="fill:white">0 km desde el inicio</text><rect x="900" y="2770" width="200" height="40" style="fill:white;stroke:black;stroke-width:1" /><text x="910" y="2780" font-size="10" style="fill:blue">fotografiasHito</text><path d="M880 2440 C900 2440 880 2790 900 2790" style="fill:transparent;stroke:black" /><rect x="1120" y="2770" width="200" height="40" style="fill:white;stroke:black;stroke-width:1" /><text x="1130" y="2780" font-size="10" style="fill:blue">fotografiaHito</text><path d="M1100 2790 C1120 2790 1100 2790 1120 2790" style="fill:transparent;stroke:black" /><text x="1130" y="2790" font-size="8" style="fill:black">src: gyeongbokgung.jpg</text><rect x="900" y="2870" width="200" height="40" style="fill:white;stroke:black;stroke-width:1" /><text x="910" y="2880" font-size="10" style="fill:blue">videosHito</text><path d="M880 2440 C900 2440 880 2890 900 2890" style="fill:transparent;stroke:black" /><rect x="1120" y="2870" width="200" height="40" style="fill:white;stroke:black;stroke-width:1" /><text x="1130" y="2880" font-size="10" style="fill:blue">videoHito</text><path d="M1100 2890 C1120 2890 1100 2890 1120 2890" style="fill:transparent;stroke:black" /><text x="1130" y="2890" font-size="8" style="fill:black">src: gyeongbokgung.mp4</text><rect x="240" y="3120" width="200" height="40" style="fill:white;stroke:black;stroke-width:1" /><text x="250" y="3130" font-size="10" style="fill:blue">ruta</text><path d="M220 40 C240 40 220 3140 240 3140" style="fill:transparent;stroke:black" /><rect x="460" y="3120" width="200" height="40" style="fill:white;stroke:black;stroke-width:1" /><text x="470" y="3130" font-size="10" style="fill:blue">nombre</text><path d="M440 3140 C460 3140 440 3140 460 3140" style="fill:transparent;stroke:black" /><rect x="526" y="3120" width="137" height="40" style="fill:green;stroke:black;stroke-width:1" /><text x="536" y="3130" font-size="8" style="fill:white">Ruta por Gyeongju</text><rect x="460" y="3170" width="200" height="40" style="fill:white;stroke:black;stroke-width:1" /><text x="470" y="3180" font-size="10" style="fill:blue">tipo</text><path d="M440 3140 C460 3140 440 3190 460 3190" style="fill:transparent;stroke:black" /><rect x="526" y="3170" width="137" height="40" style="fill:green;stroke:black;stroke-width:1" /><text x="536" y="3180" font-size="8" style="fill:white">Ciudad y Patrimonio Cultural</text><rect x="460" y="3220" width="200" height="40" style="fill:white;stroke:black;stroke-width:1" /><text x="470" y="3230" font-size="10" style="fill:blue">transporte</text><path d="M440 3140 C460 3140 440 3240 460 3240" style="fill:transparent;stroke:black" /><rect x="526" y="3220" width="137" height="40" style="fill:green;stroke:black;stroke-width:1" /><text x="536" y="3230" font-size="8" style="fill:white">Tren y a pie</text><rect x="460" y="3270" width="200" height="40" style="fill:white;stroke:black;stroke-width:1" /><text x="470" y="3280" font-size="10" style="fill:blue">fecha_inicio</text><path d="M440 3140 C460 3140 440 3290 460 3290" style="fill:transparent;stroke:black" /><rect x="526" y="3270" width="137" height="40" style="fill:green;stroke:black;stroke-width:1" /><text x="536" y="3280" font-size="8" style="fill:white">24/10/2023</text><rect x="460" y="3320" width="200" height="40" style="fill:white;stroke:black;stroke-width:1" /><text x="470" y="3330" font-size="10" style="fill:blue">hora_inicio</text><path d="M440 3140 C460 3140 440 3340 460 3340" style="fill:transparent;stroke:black" /><rect x="526" y="3320" width="137" height="40" style="fill:green;stroke:black;stroke-width:1" /><text x="536" y="3330" font-size="8" style="fill:white">09:00</text><rect x="460" y="3370" width="200" height="40" style="fill:white;stroke:black;stroke-width:1" /><text x="470" y="3380" font-size="10" style="fill:blue">duracion</text><path d="M440 3140 C460 3140 440 3390 460 3390" style="fill:transparent;stroke:black" /><rect x="526" y="3370" width="137" height="40" style="fill:green;stroke:black;stroke-width:1" /><text x="536" y="3380" font-size="8" style="fill:white">2 días</text><rect x="460" y="3420" width="200" height="40" style="fill:white;stroke:black;stroke-width:1" /><text x="470" y="3430" font-size="10" style="fill:blue">agencia</text><path d="M440 3140 C460 3140 440 3440 460 3440" style="fill:transparent;stroke:black" /><rect x="526" y="3420" width="137" height="40" style="fill:green;stroke:black;stroke-width:1" /><text x="536" y="3430" font-size="8" style="fill:white">Cultural Heritage Tours</text><rect x="460" y="3470" width="200" height="40" style="fill:white;stroke:black;stroke-width:1" /><text x="470" y="3480" font-size="10" style="fill:blue">descripcion</text><path d="M440 3140 C460 3140 440 3490 460 3490" style="fill:transparent;stroke:black" /><rect x="526" y="3470" width="137" height="40" style="fill:green;stroke:black;stroke-width:1" /><text x="536" y="3480" font-size="8" style="fill:white">Explora la ciudad de Gyeongju y sumérgete en su rica herencia cultural y arqueológica.</text><rect x="460" y="3520" width="200" height="40" style="fill:white;stroke:black;stroke-width:1" /><text x="470" y="3530" font-size="10" style="fill:blue">personasAdecuadas</text><path d="M440 3140 C460 3140 440 3540 460 3540" style="fill:transparent;stroke:black" /><rect x="526" y="3520" width="137" height="40" style="fill:green;stroke:black;stroke-width:1" /><text x="536" y="3530" font-size="8" style="fill:white">Amantes de la historia y la arqueología.</text><rect x="460" y="3570" width="200" height="40" style="fill:white;stroke:black;stroke-width:1" /><text x="470" y="3580" font-size="10" style="fill:blue">lugar_inicio</text><path d="M440 3140 C460 3140 440 3590 460 3590" style="fill:transparent;stroke:black" /><rect x="526" y="3570" width="137" height="40" style="fill:green;stroke:black;stroke-width:1" /><text x="536" y="3580" font-size="8" style="fill:white">Estación de tren de Gyeongju</text><rect x="460" y="3620" width="200" height="40" style="fill:white;stroke:black;stroke-width:1" /><text x="470" y="3630" font-size="10" style="fill:blue">direccion_inicio</text><path d="M440 3140 C460 3140 440 3640 460 3640" style="fill:transparent;stroke:black" /><rect x="526" y="3620" width="137" height="40" style="fill:green;stroke:black;stroke-width:1" /><text x="536" y="3630" font-size="8" style="fill:white">73-1, Hwango-dong, Gyeongju, Gyeongsangbuk-do</text><rect x="460" y="3670" width="200" height="40" style="fill:white;stroke:black;stroke-width:1" /><text x="470" y="3680" font-size="10" style="fill:blue">coordenada_inicio</text><path d="M440 3140 C460 3140 440 3690 460 3690" style="fill:transparent;stroke:black" /><rect x="680" y="3670" width="200" height="40" style="fill:white;stroke:black;stroke-width:1" /><text x="690" y="3680" font-size="10" style="fill:blue">longitud</text><path d="M660 3690 C680 3690 660 3690 680 3690" style="fill:transparent;stroke:black" /><rect x="746" y="3670" width="137" height="40" style="fill:green;stroke:black;stroke-width:1" /><text x="756" y="3680" font-size="8" style="fill:white">129.215028</text><rect x="680" y="3720" width="200" height="40" style="fill:white;stroke:black;stroke-width:1" /><text x="690" y="3730" font-size="10" style="fill:blue">latitud</text><path d="M660 3690 C680 3690 660 3740 680 3740" style="fill:transparent;stroke:black" /><rect x="746" y="3720" width="137" height="40" style="fill:green;stroke:black;stroke-width:1" /><text x="756" y="3730" font-size="8" style="fill:white">35.840599</text><rect x="680" y="3770" width="200" height="40" style="fill:white;stroke:black;stroke-width:1" /><text x="690" y="3780" font-size="10" style="fill:blue">altitud</text><path d="M660 3690 C680 3690 660 3790 680 3790" style="fill:transparent;stroke:black" /><rect x="746" y="3770" width="137" height="40" style="fill:green;stroke:black;stroke-width:1" /><text x="756" y="3780" font-size="8" style="fill:white">10 metros</text><rect x="460" y="3870" width="200" height="40" style="fill:white;stroke:black;stroke-width:1" /><text x="470" y="3880" font-size="10" style="fill:blue">referencias</text><path d="M440 3140 C460 3140 440 3890 460 3890" style="fill:transparent;stroke:black" /><rect x="680" y="3870" width="200" height="40" style="fill:white;stroke:black;stroke-width:1" /><text x="690" y="3880" font-size="10" style="fill:blue">referencia</text><path d="M660 3890 C680 3890 660 3890 680 3890" style="fill:transparent;stroke:black" /><text x="690" y="3890" font-size="8" style="fill:black">src:  </text><rect x="460" y="3970" width="200" height="40" style="fill:white;stroke:black;stroke-width:1" /><text x="470" y="3980" font-size="10" style="fill:blue">bibliografia</text><path d="M440 3140 C460 3140 440 3990 460 3990" style="fill:transparent;stroke:black" /><rect x="526" y="3970" width="137" height="40" style="fill:green;stroke:black;stroke-width:1" /><text x="536" y="3980" font-size="8" style="fill:white">Guía de Gyeongju</text><rect x="460" y="4020" width="200" height="40" style="fill:white;stroke:black;stroke-width:1" /><text x="470" y="4030" font-size="10" style="fill:blue">recomendacion</text><path d="M440 3140 C460 3140 440 4040 460 4040" style="fill:transparent;stroke:black" /><rect x="526" y="4020" width="137" height="40" style="fill:green;stroke:black;stroke-width:1" /><text x="536" y="4030" font-size="8" style="fill:white">Lleva calzado cómodo y una cámara para capturar los sitios históricos.</text><rect x="460" y="4070" width="200" height="40" style="fill:white;stroke:black;stroke-width:1" /><text x="470" y="4080" font-size="10" style="fill:blue">hitos</text><path d="M440 3140 C460 3140 440 4090 460 4090" style="fill:transparent;stroke:black" /><rect x="680" y="4070" width="200" height="40" style="fill:white;stroke:black;stroke-width:1" /><text x="690" y="4080" font-size="10" style="fill:blue">hito</text><path d="M660 4090 C680 4090 660 4090 680 4090" style="fill:transparent;stroke:black" /><rect x="900" y="4070" width="200" height="40" style="fill:white;stroke:black;stroke-width:1" /><text x="910" y="4080" font-size="10" style="fill:blue">nombreHito</text><path d="M880 4090 C900 4090 880 4090 900 4090" style="fill:transparent;stroke:black" /><rect x="966" y="4070" width="137" height="40" style="fill:green;stroke:black;stroke-width:1" /><text x="976" y="4080" font-size="8" style="fill:white">Túmulos Reales de Gyeongju</text><rect x="900" y="4120" width="200" height="40" style="fill:white;stroke:black;stroke-width:1" /><text x="910" y="4130" font-size="10" style="fill:blue">descripcionHito</text><path d="M880 4090 C900 4090 880 4140 900 4140" style="fill:transparent;stroke:black" /><rect x="966" y="4120" width="137" height="40" style="fill:green;stroke:black;stroke-width:1" /><text x="976" y="4130" font-size="8" style="fill:white">Sitios de entierro de la realeza de la dinastía Silla.</text><rect x="900" y="4170" width="200" height="40" style="fill:white;stroke:black;stroke-width:1" /><text x="910" y="4180" font-size="10" style="fill:blue">coordenadaHito</text><path d="M880 4090 C900 4090 880 4190 900 4190" style="fill:transparent;stroke:black" /><rect x="1120" y="4170" width="200" height="40" style="fill:white;stroke:black;stroke-width:1" /><text x="1130" y="4180" font-size="10" style="fill:blue">longitud</text><path d="M1100 4190 C1120 4190 1100 4190 1120 4190" style="fill:transparent;stroke:black" /><rect x="1186" y="4170" width="137" height="40" style="fill:green;stroke:black;stroke-width:1" /><text x="1196" y="4180" font-size="8" style="fill:white">129.211</text><rect x="1120" y="4220" width="200" height="40" style="fill:white;stroke:black;stroke-width:1" /><text x="1130" y="4230" font-size="10" style="fill:blue">latitud</text><path d="M1100 4190 C1120 4190 1100 4240 1120 4240" style="fill:transparent;stroke:black" /><rect x="1186" y="4220" width="137" height="40" style="fill:green;stroke:black;stroke-width:1" /><text x="1196" y="4230" font-size="8" style="fill:white">35.781</text><rect x="1120" y="4270" width="200" height="40" style="fill:white;stroke:black;stroke-width:1" /><text x="1130" y="4280" font-size="10" style="fill:blue">altitud</text><path d="M1100 4190 C1120 4190 1100 4290 1120 4290" style="fill:transparent;stroke:black" /><rect x="1186" y="4270" width="137" height="40" style="fill:green;stroke:black;stroke-width:1" /><text x="1196" y="4280" font-size="8" style="fill:white">16 metros</text><rect x="900" y="4370" width="200" height="40" style="fill:white;stroke:black;stroke-width:1" /><text x="910" y="4380" font-size="10" style="fill:blue">distanciaHito</text><path d="M880 4090 C900 4090 880 4390 900 4390" style="fill:transparent;stroke:black" /><rect x="966" y="4370" width="137" height="40" style="fill:green;stroke:black;stroke-width:1" /><text x="976" y="4380" font-size="8" style="fill:white">0 km desde el inicio</text><rect x="900" y="4420" width="200" height="40" style="fill:white;stroke:black;stroke-width:1" /><text x="910" y="4430" font-size="10" style="fill:blue">fotografiasHito</text><path d="M880 4090 C900 4090 880 4440 900 4440" style="fill:transparent;stroke:black" /><rect x="1120" y="4420" width="200" height="40" style="fill:white;stroke:black;stroke-width:1" /><text x="1130" y="4430" font-size="10" style="fill:blue">fotografiaHito</text><path d="M1100 4440 C1120 4440 1100 4440 1120 4440" style="fill:transparent;stroke:black" /><text x="1130" y="4440" font-size="8" style="fill:black">src: gyeongbokgung.jpg</text><rect x="900" y="4520" width="200" height="40" style="fill:white;stroke:black;stroke-width:1" /><text x="910" y="4530" font-size="10" style="fill:blue">videosHito</text><path d="M880 4090 C900 4090 880 4540 900 4540" style="fill:transparent;stroke:black" /><rect x="1120" y="4520" width="200" height="40" style="fill:white;stroke:black;stroke-width:1" /><text x="1130" y="4530" font-size="10" style="fill:blue">videoHito</text><path d="M1100 4540 C1120 4540 1100 4540 1120 4540" style="fill:transparent;stroke:black" /><text x="1130" y="4540" font-size="8" style="fill:black">src: gyeongbokgung.mp4</text></svg>